<svg width="24" height="25" viewBox="0 0 24 25" fill="none" xmlns="http://www.w3.org/2000/svg">
<g clip-path="url(#clip0_432_454)">
<path d="M10.8047 0.53286C7.65939 0.870361 4.80939 2.37505 2.80314 4.76567C1.3922 6.4438 0.515637 8.34692 0.126575 10.5782C0.0375122 11.0891 0.0281372 11.3375 0.0281372 12.5C0.0281372 13.6625 0.0375122 13.911 0.126575 14.4219C0.5672 16.9532 1.62657 19.0485 3.37501 20.8625C5.17032 22.7282 7.43439 23.9094 10.0781 24.3735C10.5891 24.4625 10.8375 24.4719 12 24.4719C13.4672 24.4719 13.9078 24.425 15.0609 24.1297C19.1953 23.061 22.5609 19.6954 23.6297 15.561C23.925 14.4079 23.9719 13.9672 23.9719 12.5C23.9719 11.0329 23.925 10.5922 23.6297 9.43911C22.5609 5.30942 19.1953 1.93911 15.0609 0.870361C13.9969 0.598486 13.4953 0.537548 12.1875 0.523485C11.5313 0.514111 10.9078 0.518799 10.8047 0.53286ZM18.3047 7.40942C18.7406 7.61098 18.9844 7.96255 19.0219 8.4313C19.0641 8.97036 19.2281 8.78286 14.8688 13.1094C12.0938 15.861 10.8563 17.0563 10.7016 17.1407C10.3781 17.3094 9.94689 17.3047 9.65626 17.1313C9.39845 16.9766 5.37189 13.311 5.19845 13.0719C4.8422 12.5797 4.92189 11.8954 5.37657 11.5204C5.72814 11.225 6.21095 11.1735 6.61407 11.3797C6.7172 11.4313 7.55157 12.1579 8.47032 13.0016L10.1344 14.525L13.6828 10.9813C15.6328 9.0313 17.2406 7.43755 17.25 7.43755C17.2641 7.43755 17.3578 7.40474 17.4609 7.36724C17.7375 7.2688 18.0375 7.28286 18.3047 7.40942Z" fill="#04B256"/>
</g>
<defs>
<clipPath id="clip0_432_454">
<rect width="24" height="24" fill="white" transform="translate(0 0.5)"/>
</clipPath>
</defs>
</svg>
