<svg width="46" height="41" viewBox="0 0 46 41" fill="none" xmlns="http://www.w3.org/2000/svg">
<path d="M0 37.4667L0.115663 21.457C0.118055 21.4346 0.118055 21.412 0.115663 21.3896C0.125875 18.4003 0.764414 15.4466 1.98985 12.7201C3.21529 9.99362 5.00025 7.55519 7.22892 5.56306C14.8096 -1.18875 26.0241 0.0979972 26.0241 0.0979972C28.0438 0.260946 30.0326 0.69371 31.9373 1.38474C35.4226 2.64095 38.5203 4.78363 40.9253 7.60161C43.8464 11.1461 45.5376 15.5433 45.7446 20.1317C45.6964 26.9558 41.5711 31.5052 40.2024 32.9751C37.5812 35.7586 34.2608 37.7874 30.588 38.8498C30.588 38.8498 21.9133 41.1197 14.4145 39.8137C13.8956 39.7201 13.4267 39.4455 13.0914 39.0387C12.756 38.6318 12.5759 38.1192 12.5831 37.592V17.9534C12.5816 17.8469 12.5896 17.7404 12.6072 17.6353C12.7711 16.7631 13.7253 12.7775 17.5663 12.6522C21.9036 12.5125 27.0217 12.4498 27.0217 12.4498C27.0217 12.4498 30.3325 12.3293 29.1759 18.0064C29.1759 18.0064 29.1181 18.6522 27.8458 18.5944L20.3373 18.6715C20.0685 18.6874 19.8119 18.7899 19.6061 18.9636C19.4002 19.1373 19.2561 19.373 19.1952 19.6353L19.147 21.0811C19.147 21.0811 19.0361 21.7173 19.7783 21.6305H21.706H22.4289C22.7422 21.6305 22.8145 21.6016 23.1181 21.592C23.4217 21.5823 23.3639 21.592 23.8458 21.592C24.7422 21.5679 24.7277 21.539 24.906 21.5582C25.3953 21.6325 25.8471 21.8643 26.1928 22.2185C26.5436 22.578 26.7902 23.0261 26.906 23.5149C27.0141 23.9055 27.0661 24.3096 27.0602 24.7149C27.0936 25.1051 27.0693 25.498 26.988 25.8811C26.8623 26.375 26.6249 26.8334 26.294 27.2209C25.8458 27.7028 25.2434 27.8619 22.9205 27.9582C22.1349 27.992 21.1373 28.0209 19.9663 28.0161C19.9663 28.0161 19.1759 27.857 19.1759 29.5149C19.1759 30.9173 19.1759 33.0908 19.1759 33.7317C19.1833 33.8215 19.1833 33.9118 19.1759 34.0016C19.1516 34.1125 19.152 34.2274 19.177 34.3382C19.202 34.4489 19.251 34.5528 19.3205 34.6426C19.4901 34.7746 19.7045 34.8351 19.9181 34.8113C34.4434 34.0498 38.2554 26.0257 38.2554 26.0257C39.6033 23.2371 40.0044 20.0847 39.3976 17.0474C38.3373 12.0064 34.7325 9.25462 33.6145 8.44017C27.9518 4.21848 21.3687 5.54378 19.7301 5.87631C16.8229 6.48265 14.102 7.77289 11.7928 9.64017C11.71 9.70444 11.6327 9.77536 11.5614 9.85221C9.83306 11.6468 8.54754 13.8202 7.80723 16.1992C5.51325 23.8281 8.61687 36.3341 7.15181 39.0378C7.0492 39.2149 6.92272 39.377 6.7759 39.5197C5.33012 40.9076 2.23133 39.6739 1.95663 39.5534C1.58029 39.3994 1.21757 39.214 0.872289 38.9992C0.607479 38.8402 0.388102 38.6157 0.235315 38.3472C0.082527 38.0788 0.00148355 37.7755 0 37.4667H0Z" fill="#04B256"/>
</svg>
