<svg width="46" height="40" viewBox="0 0 46 40" fill="none" xmlns="http://www.w3.org/2000/svg">
<path d="M0 36.4667L0.115663 20.457C0.118055 20.4346 0.118055 20.412 0.115663 20.3896C0.125875 17.4003 0.764414 14.4466 1.98985 11.7201C3.21529 8.99362 5.00025 6.55519 7.22892 4.56306C14.8096 -2.18875 26.0241 -0.902003 26.0241 -0.902003C28.0438 -0.739054 30.0326 -0.30629 31.9373 0.384744C35.4226 1.64095 38.5203 3.78363 40.9253 6.60161C43.8464 10.1461 45.5376 14.5433 45.7446 19.1317C45.6964 25.9558 41.5711 30.5052 40.2024 31.9751C37.5812 34.7586 34.2608 36.7874 30.588 37.8498C30.588 37.8498 21.9133 40.1197 14.4145 38.8137C13.8956 38.7201 13.4267 38.4455 13.0914 38.0387C12.756 37.6318 12.5759 37.1192 12.5831 36.592V16.9534C12.5816 16.8469 12.5896 16.7404 12.6072 16.6353C12.7711 15.7631 13.7253 11.7775 17.5663 11.6522C21.9036 11.5125 27.0217 11.4498 27.0217 11.4498C27.0217 11.4498 30.3325 11.3293 29.1759 17.0064C29.1759 17.0064 29.1181 17.6522 27.8458 17.5944L20.3373 17.6715C20.0685 17.6874 19.8119 17.7899 19.6061 17.9636C19.4002 18.1373 19.2561 18.373 19.1952 18.6353L19.147 20.0811C19.147 20.0811 19.0361 20.7173 19.7783 20.6305H21.706H22.4289C22.7422 20.6305 22.8145 20.6016 23.1181 20.592C23.4217 20.5823 23.3639 20.592 23.8458 20.592C24.7422 20.5679 24.7277 20.539 24.906 20.5582C25.3953 20.6325 25.8471 20.8643 26.1928 21.2185C26.5436 21.578 26.7902 22.0261 26.906 22.5149C27.0141 22.9055 27.0661 23.3096 27.0602 23.7149C27.0936 24.1051 27.0693 24.498 26.988 24.8811C26.8623 25.375 26.6249 25.8334 26.294 26.2209C25.8458 26.7028 25.2434 26.8619 22.9205 26.9582C22.1349 26.992 21.1373 27.0209 19.9663 27.0161C19.9663 27.0161 19.1759 26.857 19.1759 28.5149C19.1759 29.9173 19.1759 32.0908 19.1759 32.7317C19.1833 32.8215 19.1833 32.9118 19.1759 33.0016C19.1516 33.1125 19.152 33.2274 19.177 33.3382C19.202 33.4489 19.251 33.5528 19.3205 33.6426C19.4901 33.7746 19.7045 33.8351 19.9181 33.8113C34.4434 33.0498 38.2554 25.0257 38.2554 25.0257C39.6033 22.2371 40.0044 19.0847 39.3976 16.0474C38.3373 11.0064 34.7325 8.25462 33.6145 7.44017C27.9518 3.21848 21.3687 4.54378 19.7301 4.87631C16.8229 5.48265 14.102 6.77289 11.7928 8.64017C11.71 8.70444 11.6327 8.77536 11.5614 8.85221C9.83306 10.6468 8.54754 12.8202 7.80723 15.1992C5.51325 22.8281 8.61687 35.3341 7.15181 38.0378C7.0492 38.2149 6.92272 38.377 6.7759 38.5197C5.33012 39.9076 2.23133 38.6739 1.95663 38.5534C1.58029 38.3994 1.21757 38.214 0.872289 37.9992C0.607479 37.8402 0.388102 37.6157 0.235315 37.3472C0.082527 37.0788 0.00148355 36.7755 0 36.4667H0Z" fill="#04B256"/>
</svg>
