<svg width="24" height="24" viewBox="0 0 24 24" fill="none" xmlns="http://www.w3.org/2000/svg">
<g clip-path="url(#clip0_76_181)">
<path d="M10.8047 0.0328598C7.65939 0.370361 4.80939 1.87505 2.80314 4.26567C1.3922 5.9438 0.515637 7.84692 0.126575 10.0782C0.0375122 10.5891 0.0281372 10.8375 0.0281372 12C0.0281372 13.1625 0.0375122 13.411 0.126575 13.9219C0.5672 16.4532 1.62657 18.5485 3.37501 20.3625C5.17032 22.2282 7.43439 23.4094 10.0781 23.8735C10.5891 23.9625 10.8375 23.9719 12 23.9719C13.4672 23.9719 13.9078 23.925 15.0609 23.6297C19.1953 22.561 22.5609 19.1954 23.6297 15.061C23.925 13.9079 23.9719 13.4672 23.9719 12C23.9719 10.5329 23.925 10.0922 23.6297 8.93911C22.5609 4.80942 19.1953 1.43911 15.0609 0.370361C13.9969 0.0984859 13.4953 0.0375481 12.1875 0.0234852C11.5313 0.0141106 10.9078 0.0187988 10.8047 0.0328598ZM18.3047 6.90942C18.7406 7.11098 18.9844 7.46255 19.0219 7.9313C19.0641 8.47036 19.2281 8.28286 14.8688 12.6094C12.0938 15.361 10.8563 16.5563 10.7016 16.6407C10.3781 16.8094 9.94689 16.8047 9.65626 16.6313C9.39845 16.4766 5.37189 12.811 5.19845 12.5719C4.8422 12.0797 4.92189 11.3954 5.37657 11.0204C5.72814 10.725 6.21095 10.6735 6.61407 10.8797C6.7172 10.9313 7.55157 11.6579 8.47032 12.5016L10.1344 14.025L13.6828 10.4813C15.6328 8.5313 17.2406 6.93755 17.25 6.93755C17.2641 6.93755 17.3578 6.90474 17.4609 6.86724C17.7375 6.7688 18.0375 6.78286 18.3047 6.90942Z" fill="#04B256"/>
</g>
<defs>
<clipPath id="clip0_76_181">
<rect width="24" height="24" fill="white"/>
</clipPath>
</defs>
</svg>
