<svg width="64" height="64" viewBox="0 0 64 64" fill="none" xmlns="http://www.w3.org/2000/svg">
<g clip-path="url(#clip0_119_463)">
<path d="M31.0876 0.8125C30.5626 1.3375 30.5626 2.1625 31.0876 2.675C31.3376 2.9375 31.5376 3 32.0001 3C32.9001 3 33.4501 2.3375 33.2751 1.4375C33.2501 1.275 33.0751 0.9875 32.9126 0.8125C32.4626 0.3625 31.5376 0.3625 31.0876 0.8125Z" fill="#04B256"/>
<path d="M15.7375 4.3625C15.4375 4.6625 15.375 4.8375 15.375 5.3375V5.9375L19.975 10.525L24.5625 15.125H25.2125C25.775 15.125 25.8875 15.075 26.175 14.7375C26.4125 14.4625 26.5 14.2125 26.5 13.8375C26.5 13.325 26.475 13.2875 21.8375 8.6625L17.1875 4H16.65C16.2125 4 16.025 4.075 15.7375 4.3625Z" fill="#04B256"/>
<path d="M42.1625 8.6625C37.525 13.2875 37.5 13.325 37.5 13.8375C37.5 14.2125 37.5875 14.4625 37.825 14.7375C38.1125 15.075 38.225 15.125 38.7875 15.125H39.4375L44.025 10.525L48.625 5.9375V5.3375C48.625 4.8375 48.5625 4.6625 48.2625 4.3625C47.975 4.075 47.7875 4 47.35 4H46.8125L42.1625 8.6625Z" fill="#04B256"/>
<path d="M31.1002 5.8625L30.6877 6.225L30.6502 9.8375C30.6252 11.8125 30.6377 13.675 30.6877 13.9625C30.8002 14.725 31.2502 15.125 32.0002 15.125C32.7502 15.125 33.2002 14.725 33.3127 13.9625C33.3627 13.675 33.3752 11.8125 33.3502 9.8375L33.3127 6.225L32.9002 5.8625C32.6002 5.5875 32.3752 5.5 32.0002 5.5C31.6252 5.5 31.4002 5.5875 31.1002 5.8625Z" fill="#04B256"/>
<path d="M12.3 13.1C12.1625 13.2125 9.9375 15.925 7.35 19.125C4.775 22.325 2.075 25.6875 1.3375 26.5875C0.0875046 28.15 4.53468e-06 28.2875 4.53468e-06 28.8125C4.53468e-06 29.525 -0.0249954 29.5 3.6375 32.65L6.6 35.1875L9.35001 38.8875L12.1 42.5875L11.7375 43.1125C11.1625 43.975 10.9625 44.7625 11.025 45.925C11.0875 47.1625 11.3875 47.8875 12.2 48.75C12.775 49.3625 13.6875 49.8875 14.45 50.05C14.8375 50.1375 14.8375 50.15 14.9125 51.0125C15.0875 53.15 16.725 54.925 18.7625 55.2L19.35 55.275L19.425 55.925C19.6875 57.9875 21.425 59.5875 23.575 59.725L24.475 59.7875L24.625 60.3625C24.9375 61.6125 25.85 62.6875 27.125 63.2875C27.825 63.625 28.0625 63.675 28.9375 63.6625C30.275 63.6625 31.15 63.3125 32.1 62.4375L32.8125 61.775L33.3 62.2C34.0375 62.8375 35 63.1625 36.1875 63.1625C37.0625 63.175 37.3 63.125 38 62.7875C39.4125 62.125 40.4125 60.8125 40.5875 59.4125L40.6625 58.775L41.4125 58.625C43.3875 58.2375 44.8625 56.7375 45.0875 54.9125L45.1625 54.275L45.875 54.15C47.8125 53.8 49.3625 52.2375 49.5875 50.4C49.625 50.0375 49.675 49.75 49.6875 49.75C49.7 49.75 50.0375 49.6875 50.4375 49.6125C51.9 49.3375 53.0625 48.4625 53.7125 47.15C54.025 46.5125 54.0625 46.3 54.0625 45.1875C54.0625 44.1375 54.0125 43.85 53.775 43.35L53.4875 42.775L55.5 38.5375L57.5125 34.3125L60.5875 31.6875C62.2625 30.2375 63.725 28.95 63.825 28.8125C63.925 28.675 64 28.3375 64 28.0375C64 27.6 63.9 27.375 63.35 26.6625C58.8 20.7 53.0375 13.2625 52.825 13.1C52.675 12.975 52.35 12.875 52.05 12.875C51.6 12.875 51.125 13.15 48.0125 15.125L44.475 17.375H39.95H35.4375L31.75 18.425L28.075 19.4875L24.4625 18.4875L20.8625 17.5L17.225 15.1875C14.0125 13.1375 13.525 12.875 13.075 12.875C12.775 12.875 12.45 12.975 12.3 13.1ZM15.7375 17.4C16.95 18.1625 18.0125 18.8625 18.1125 18.95C18.25 19.075 17.35 20.2375 12.8875 25.675C9.91251 29.2875 7.4375 32.25 7.3875 32.25C7.2625 32.25 3.1875 28.75 3.1875 28.6375C3.1875 28.5 13.3125 16 13.425 16C13.4875 16 14.525 16.625 15.7375 17.4ZM56.3125 21.875C58.7875 25.1 60.8125 27.8 60.8125 27.85C60.8125 28 56.7125 31.5125 56.6 31.4625C56.55 31.45 54.325 28.65 51.65 25.25L46.775 19.0625L47.6125 18.5375C48.0625 18.25 49.1375 17.5625 50 17.0125C50.8625 16.4625 51.625 16.0125 51.6875 16.0125C51.7625 16.0125 53.8375 18.65 56.3125 21.875ZM49.3875 26.7125C52.2875 30.4125 54.7125 33.5 54.7625 33.5625C54.8125 33.6375 54.125 35.2125 53.2375 37.0625C52.3625 38.925 51.6125 40.4875 51.575 40.5625C51.55 40.625 48.325 37.5 44.425 33.6C38.9125 28.1 37.225 26.4875 36.9375 26.4375C36.7375 26.4 35 26.2625 33.0875 26.125C29.9375 25.9 29.5625 25.8875 29.2 26.0625C28.8625 26.225 28.5 26.7875 26.95 29.5375C25.925 31.3375 24.95 32.9625 24.775 33.15C24.1125 33.8625 23.075 33.9 22.3125 33.2375C21.825 32.8 21.5625 32.15 21.675 31.5875C21.725 31.3625 22.8375 29.275 24.175 26.9375L26.5875 22.6875L31.1375 21.35L35.6875 20.025L39.9 20.0125L44.1125 20L49.3875 26.7125ZM22.725 20.75C23.5625 20.975 24.25 21.2125 24.25 21.275C24.25 21.35 23.1625 23.3125 21.8375 25.6625C20.5 28.0125 19.3375 30.1375 19.2375 30.375C19.1375 30.6375 19.0625 31.25 19.0625 31.9375C19.0625 32.9125 19.1125 33.15 19.4125 33.775C20.6625 36.3125 23.75 37.1375 26.075 35.55C26.8875 35 27.125 34.65 28.9875 31.3375C30.3875 28.875 30.55 28.625 30.8625 28.625C31.0375 28.625 32.2875 28.7125 33.625 28.8125L36.0625 29L43.6 36.525C47.925 40.85 51.225 44.2375 51.325 44.4625C51.6875 45.3 51.425 46.1875 50.6125 46.775C50.175 47.1125 49.25 47.1 48.7125 46.7625C48.4875 46.625 46.475 44.65 44.2625 42.375C42.0375 40.1 40.0625 38.15 39.8625 38.0625C38.85 37.525 37.8 38.35 37.975 39.525C38.0125 39.8 39.0875 40.9625 42.3875 44.3C44.7875 46.725 46.8 48.8625 46.875 49.05C47.175 49.8625 46.925 50.625 46.175 51.2C45.6125 51.6375 44.85 51.6625 44.2125 51.2625C43.9625 51.1125 42.5625 49.75 41.1 48.225C39.6375 46.7125 38.2875 45.4 38.1 45.3C37.5125 45 37.025 45.075 36.55 45.55C36.0625 46.0375 35.9875 46.6125 36.325 47.125C36.4375 47.3 37.8125 48.725 39.3875 50.3125C40.95 51.8875 42.3 53.35 42.375 53.5375C42.9 54.9625 41.6125 56.375 40.15 55.975C39.8 55.875 39.2125 55.3875 37.8 53.9875C36.1625 52.375 35.8625 52.125 35.5125 52.125C34.6 52.125 34.025 52.8125 34.1625 53.7125C34.225 54.0875 34.55 54.475 36.05 55.9875C37.55 57.5125 37.875 57.9125 37.9375 58.3C38.275 60.075 36.275 61.225 34.8875 60.05C34.5125 59.7375 34.5125 59.7375 34.7 59.225C35.5625 56.75 34.25 54.0875 31.8 53.375L31.275 53.225L31.225 52.075C31.1875 51.075 31.125 50.8375 30.75 50.15C30.075 48.8875 28.8625 48.025 27.6 47.9C26.9625 47.8375 26.75 47.6125 26.75 47C26.75 46.4875 26.2125 45.3625 25.6875 44.7875C24.7625 43.75 23.175 43.125 21.925 43.3C21.4125 43.3625 21.3875 43.3625 21.3 42.9625C21.1625 42.2875 20.675 41.4625 20.1 40.925C19.3875 40.25 19.05 40.0625 18.175 39.8C16.95 39.45 15.5375 39.6875 14.35 40.4625C14.0125 40.675 14 40.675 13.825 40.4375C13.725 40.3 12.6625 38.8625 11.4625 37.25L9.275 34.3125L9.7375 33.75C9.9875 33.425 12.575 30.2625 15.5 26.7C19.0875 22.3375 20.875 20.25 21 20.2875C21.1 20.3125 21.875 20.525 22.725 20.75ZM17.6625 42.425C18.525 42.7875 18.975 43.7 18.725 44.6C18.55 45.2375 16.625 47.2 15.9875 47.3875C14.675 47.7875 13.5 46.7875 13.6625 45.425C13.7125 44.9 13.825 44.7375 14.825 43.725C16.2625 42.2625 16.7625 42.0375 17.6625 42.425ZM23.0875 46.1125C23.9125 46.5 24.3375 47.3625 24.1 48.2125C23.925 48.8875 20.525 52.325 19.85 52.525C18.5375 52.9125 17.1875 51.525 17.6125 50.225C17.7875 49.7 21.275 46.2125 21.8125 46.025C22.35 45.8375 22.5 45.85 23.0875 46.1125ZM27.8125 50.75C28.5375 51.2 28.85 52.3375 28.45 53.1C28.175 53.6125 24.8625 56.8375 24.4625 57C23.6125 57.3125 22.6625 56.9125 22.25 56.0625C21.9625 55.475 21.9375 55.175 22.125 54.6625C22.275 54.275 25.3375 51.1125 25.9375 50.7375C26.4375 50.425 27.2875 50.425 27.8125 50.75ZM31.5125 56.1625C31.775 56.3375 32.025 56.675 32.175 57.025C32.55 57.95 32.35 58.4375 31.025 59.775C29.8375 60.95 29.375 61.1875 28.55 61C27.6375 60.7875 27 59.775 27.175 58.8125C27.2375 58.475 27.5125 58.1 28.225 57.35C28.75 56.7875 29.3625 56.2375 29.5625 56.1125C30.1 55.775 30.975 55.8 31.5125 56.1625Z" fill="#04B256"/>
</g>
<defs>
<clipPath id="clip0_119_463">
<rect width="64" height="64" fill="white"/>
</clipPath>
</defs>
</svg>
