<svg width="64" height="64" viewBox="0 0 64 64" fill="none" xmlns="http://www.w3.org/2000/svg">
<g clip-path="url(#clip0_55_701)">
<path d="M46.1249 6.43745C41.1249 7.23745 36.7749 10.3875 34.5624 14.8375C31.3249 21.3625 33.0374 29.4375 38.5999 33.8875C41.7749 36.425 45.0749 37.5 49.1874 37.3375C51.8749 37.2375 54.0374 36.6125 56.2999 35.3C58.9124 33.7875 61.0749 31.4875 62.4249 28.775C64.2499 25.125 64.5124 20.5625 63.1374 16.575C60.7374 9.66245 53.3999 5.28745 46.1249 6.43745ZM56.5499 16.8875C56.7874 17.075 56.8749 17.2625 56.8749 17.5625C56.8749 17.975 56.6624 18.1625 51.5624 22.3125C48.6374 24.6875 46.0874 26.725 45.8874 26.85C45.6124 27 45.4374 27.025 45.1999 26.9375C44.8499 26.8 40.1999 21.4375 40.0624 21C39.8999 20.4875 40.5999 19.825 41.1624 19.975C41.2874 20.0125 42.2374 21.025 43.2749 22.2375C44.3124 23.45 45.2624 24.5375 45.3749 24.6625C45.5874 24.8875 45.7999 24.7375 50.6749 20.7625C53.4749 18.4875 55.8624 16.625 55.9874 16.625C56.1124 16.625 56.3624 16.7375 56.5499 16.8875Z" fill="#04B256"/>
<path d="M3.8 22.7625C2.9 22.9125 2.15 23.2625 1.4875 23.85C0.937498 24.3375 0.237498 25.475 0.0874982 26.125C0.0124982 26.4125 0.899998 27.1875 10.6375 35.4375C17.1375 40.95 21.525 44.5875 21.9625 44.8125C22.5875 45.15 22.7875 45.1875 23.7375 45.1875C24.65 45.1875 24.9125 45.1375 25.5 44.85C25.9375 44.625 28.2 42.8 31.725 39.8L37.2625 35.1L36.2625 34.1125C33.4 31.3 31.6 27.5375 31.1875 23.4625L31.1 22.625L17.775 22.6375C10.4375 22.65 4.15 22.7 3.8 22.7625Z" fill="#04B256"/>
<path d="M0 41.3375C0 52.55 0.025 54.025 0.2 54.5375C0.3125 54.8625 0.45 55.15 0.5 55.1875C0.55 55.225 3.2125 52.575 6.4 49.3125C9.575 46.0375 12.3125 43.3375 12.475 43.3C13.175 43.1125 13.7875 43.6875 13.55 44.3125C13.4875 44.4875 10.825 47.3 7.625 50.575C4.425 53.85 1.8 56.575 1.775 56.625C1.75 56.6875 2.1125 56.9125 2.5875 57.15L3.4375 57.5625H23.75H44.0625L44.9125 57.1625C45.3875 56.9375 45.75 56.7 45.725 56.6375C45.7125 56.5625 43.025 53.8125 39.7875 50.5125C34.6375 45.275 33.875 44.45 33.875 44.125C33.875 43.65 34.2625 43.25 34.7375 43.25C35.05 43.25 35.9 44.0625 41.0375 49.275L46.975 55.3L47.1625 54.9125C47.5875 54.1125 47.6375 53.05 47.6 46.0625L47.5625 39.1875L46.625 39.1C44.175 38.8625 41.4625 37.9125 39.125 36.4875L38.675 36.2125L33.125 40.9375C30.0625 43.525 27.2875 45.8375 26.9375 46.075C26.0875 46.6625 24.9 47.0125 23.7875 47.0125C22.3625 47.0125 21.25 46.625 20.1 45.725C19.55 45.2875 3.075 31.3625 0.725 29.3375L0 28.725V41.3375Z" fill="#04B256"/>
</g>
<defs>
<clipPath id="clip0_55_701">
<rect width="64" height="64" fill="white"/>
</clipPath>
</defs>
</svg>
