<svg width="64" height="64" viewBox="0 0 64 64" fill="none" xmlns="http://www.w3.org/2000/svg">
<path d="M19.4375 5.375C19.3 5.4375 16.0625 8.6125 12.25 12.425L5.3125 19.375V33.5375V47.6875L5.6625 48.3875C6.0625 49.2125 6.9 50.0375 7.725 50.4125C8.2875 50.675 8.4875 50.6875 13.4625 50.725L18.6125 50.7625L18.65 53.2875C18.6875 55.675 18.7125 55.85 19 56.4375C19.4 57.2625 20.125 57.95 20.9875 58.3625L21.6875 58.6875H38.6875H55.6875L56.3875 58.3375C57.2125 57.9375 58.0375 57.1 58.4125 56.275L58.6875 55.6875L58.725 37.6875C58.7625 17.6625 58.8125 18.8 57.925 17.5875C57.45 16.9375 56.5875 16.325 55.875 16.125C55.6375 16.0625 53.7625 16 51.725 16H48V12.275C48 10.2375 47.9375 8.3625 47.875 8.125C47.675 7.4125 47.0625 6.55 46.4125 6.075C45.225 5.2125 45.7875 5.25 32.05 5.2625C25.25 5.2625 19.575 5.3125 19.4375 5.375ZM44.275 8.125C44.525 8.2 44.85 8.4 45 8.5875C45.25 8.9125 45.25 8.9625 45.25 28C45.25 47.0375 45.25 47.0875 45 47.4125C44.85 47.6 44.525 47.8 44.275 47.875C43.575 48.0625 9.575 48.0375 9.0125 47.8375C8.775 47.75 8.4625 47.525 8.325 47.3375C8.0625 46.9875 8.0625 46.95 8.025 34.1875L8 21.3875L13.2125 21.35L18.4375 21.3125L19.15 20.9625C20.025 20.5375 20.7875 19.7 21.125 18.8C21.3625 18.15 21.375 17.8375 21.375 13.0625V8H32.6C39.9 8 43.975 8.05 44.275 8.125ZM18.4375 17.875C18.0625 18.6 17.8875 18.625 13.7875 18.625H10.0625L14.3125 14.375L18.5625 10.125L18.6 13.8125C18.625 16.925 18.6 17.5625 18.4375 17.875ZM55.4125 19C55.6 19.15 55.8 19.475 55.875 19.725C56.0625 20.425 56.0375 54.425 55.8375 54.9875C55.75 55.225 55.525 55.5375 55.3375 55.675L54.9875 55.9375H38.7C25.0125 55.9375 22.3625 55.9125 22.0875 55.7625C21.4875 55.4375 21.375 54.975 21.375 52.7625V50.75H32.9C45.6875 50.75 45.2375 50.775 46.4125 49.925C47.0625 49.45 47.675 48.5875 47.875 47.875C47.95 47.6 48 42.1 48 33.0875V18.75H51.55C54.925 18.75 55.1 18.7625 55.4125 19Z" fill="#04B256"/>
<path d="M15.2124 24.1375C14.6749 24.45 14.4499 25.5625 14.8249 26.1C15.2999 26.775 14.8499 26.75 26.6874 26.75C38.7499 26.75 38.1499 26.7875 38.5749 25.975C38.8374 25.4625 38.7249 24.8125 38.2999 24.35L37.9499 24H26.6999C19.2874 24.0125 15.3624 24.05 15.2124 24.1375Z" fill="#04B256"/>
<path d="M15.05 31.05C14.7 31.4 14.625 31.575 14.625 32C14.625 32.425 14.7 32.6 15.05 32.95L15.475 33.375H26.6625C37.5875 33.375 37.85 33.375 38.15 33.125C38.875 32.5625 38.9125 31.5125 38.2375 30.95L37.85 30.625H26.6625H15.475L15.05 31.05Z" fill="#04B256"/>
<path d="M15.2874 37.5C15.0749 37.625 14.8249 37.85 14.7624 37.9875C14.4624 38.55 14.7249 39.6 15.2374 39.875C15.5749 40.05 28.4249 40.05 28.7624 39.875C29.3124 39.575 29.5624 38.45 29.1749 37.9C28.7249 37.25 28.7374 37.25 21.9749 37.25C15.9749 37.25 15.6749 37.2625 15.2874 37.5Z" fill="#04B256"/>
<path d="M32.875 37.3375C32.775 37.375 32.5375 37.55 32.35 37.725C32.0625 37.9875 32 38.15 32 38.6625C32 39.1625 32.0625 39.325 32.3625 39.6375L32.725 40H35.3375H37.95L38.3 39.65C38.725 39.1875 38.8375 38.5375 38.575 38.025C38.2125 37.325 37.9 37.25 35.35 37.2625C34.0875 37.2625 32.975 37.3 32.875 37.3375Z" fill="#04B256"/>
</svg>
