<svg width="64" height="64" viewBox="0 0 64 64" fill="none" xmlns="http://www.w3.org/2000/svg">
<path d="M47.9999 19.0933C47.8399 19.0667 47.6532 19.0667 47.4932 19.0933C43.8132 18.96 40.8799 15.9467 40.8799 12.2133C40.8799 8.39998 43.9465 5.33331 47.7599 5.33331C51.5732 5.33331 54.6399 8.42665 54.6399 12.2133C54.6132 15.9467 51.6799 18.96 47.9999 19.0933Z" stroke="#04B256" stroke-width="3" stroke-linecap="round" stroke-linejoin="round"/>
<path d="M45.2533 38.5066C48.9067 39.12 52.9334 38.48 55.76 36.5866C59.52 34.08 59.52 29.9733 55.76 27.4667C52.9067 25.5733 48.8267 24.9333 45.1733 25.5733" stroke="#04B256" stroke-width="3" stroke-linecap="round" stroke-linejoin="round"/>
<path d="M15.9198 19.0933C16.0798 19.0667 16.2665 19.0667 16.4265 19.0933C20.1065 18.96 23.0398 15.9467 23.0398 12.2133C23.0398 8.39998 19.9731 5.33331 16.1598 5.33331C12.3465 5.33331 9.27979 8.42665 9.27979 12.2133C9.30645 15.9467 12.2398 18.96 15.9198 19.0933Z" stroke="#04B256" stroke-width="3" stroke-linecap="round" stroke-linejoin="round"/>
<path d="M18.6665 38.5066C15.0132 39.12 10.9865 38.48 8.15984 36.5866C4.39984 34.08 4.39984 29.9733 8.15984 27.4667C11.0132 25.5733 15.0932 24.9333 18.7465 25.5733" stroke="#04B256" stroke-width="3" stroke-linecap="round" stroke-linejoin="round"/>
<path d="M31.9999 39.0134C31.8399 38.9867 31.6532 38.9867 31.4932 39.0134C27.8132 38.88 24.8799 35.8667 24.8799 32.1334C24.8799 28.32 27.9465 25.2534 31.7599 25.2534C35.5732 25.2534 38.6399 28.3467 38.6399 32.1334C38.6132 35.8667 35.6799 38.9067 31.9999 39.0134Z" stroke="#04B256" stroke-width="3" stroke-linecap="round" stroke-linejoin="round"/>
<path d="M24.2399 47.4133C20.4799 49.92 20.4799 54.0267 24.2399 56.5333C28.5066 59.3867 35.4933 59.3867 39.7599 56.5333C43.5199 54.0267 43.5199 49.92 39.7599 47.4133C35.5199 44.5867 28.5066 44.5867 24.2399 47.4133Z" stroke="#04B256" stroke-width="3" stroke-linecap="round" stroke-linejoin="round"/>
</svg>
